PathFileType	4	(X/Y/Z)	PS_ngait_og_ss3.trc	
DataRate	CameraRate	NumFrames	NumMarkers	Units	OrigDataRate	OrigDataStartFrame	OrigNumFrames	
120.00	120.00	9	39	mm	120.00	561	130	
Frame#	Time	Sternum			Neck			RShoulder			LShoulder			Xiphoid			Thoracic			RAsis			LAsis			RPsis			LPsis			LThighSuperior			LThighInferior			LThighLateral			LShankSuperior			LShankInferior			LShankLateral			RThighSuperior			RThighInferior			RThighLateral			RShankSuperior			RShankInferior			RHeel			RToe			RMidfootMedial			RMidfootLateral			RHindfoot			RMidfootSuperior			RToeMedial			RToeLateral			LHeel			LToe			LMidfootMedial			LMidfootLateral			LHindfoot			LMidfootSuperior			LToeMedial			LToeLateral			Sacral			RShankLateral			
		X1	Y1	Z1	X2	Y2	Z2	X3	Y3	Z3	X4	Y4	Z4	X5	Y5	Z5	X6	Y6	Z6	X7	Y7	Z7	X8	Y8	Z8	X9	Y9	Z9	X10	Y10	Z10	X11	Y11	Z11	X12	Y12	Z12	X13	Y13	Z13	X14	Y14	Z14	X15	Y15	Z15	X16	Y16	Z16	X17	Y17	Z17	X18	Y18	Z18	X19	Y19	Z19	X20	Y20	Z20	X21	Y21	Z21	X22	Y22	Z22	X23	Y23	Z23	X24	Y24	Z24	X25	Y25	Z25	X26	Y26	Z26	X27	Y27	Z27	X28	Y28	Z28	X29	Y29	Z29	X30	Y30	Z30	X31	Y31	Z31	X32	Y32	Z32	X33	Y33	Z33	X34	Y34	Z34	X35	Y35	Z35	X36	Y36	Z36	X37	Y37	Z37	X38	Y38	Z38	X39	Y39	Z39	

49	0.400	624.97729	1456.97021	205.91594	462.79105	1555.77881	208.97032	510.58539	1545.32019	370.84610	490.67685	1544.06775	72.40044	659.12915	1297.31458	217.15935	383.20041	1337.67859	224.98268	576.47418	1029.03040	364.00687	581.74304	1030.29602	89.06339	388.37521	1059.73303	282.12479	384.05768	1050.74792	177.37785	506.48337	849.86737	42.74827	541.53735	601.06946	112.28687	592.83234	717.27869	126.12189	484.10422	378.85217	91.93444	433.46362	185.15959	135.13162	495.86050	273.65805	165.07980	563.10901	842.81360	421.40320	652.72406	623.10681	408.82208	681.04468	790.27039	354.96619	638.60657	473.08386	420.09689	601.82465	221.80450	383.54831	504.53448	114.81485	327.31693	814.91730	65.40569	345.37418	717.33954	59.21995	292.03357	710.76630	51.47018	407.11774	660.43811	58.47173	397.14874	686.30823	121.64494	345.14471	761.54370	57.79765	296.59528	760.74500	53.75586	399.99521	334.23950	66.35454	196.56245	645.88385	58.10292	157.57993	550.17596	36.03441	218.74045	540.83234	31.76699	101.23304	486.23889	29.69124	114.63998	522.14233	96.54910	168.51398	592.00293	36.35254	211.14920	585.35455	41.22480	107.45975	386.21646	1055.24048	229.75133	673.64893	340.00397	343.00238 
50	0.408	633.21997	1455.87756	206.35262	471.26337	1555.06921	209.54839	519.35516	1544.71362	371.44391	498.88525	1543.32031	73.13681	667.14893	1296.10962	217.48825	391.32114	1337.08630	226.03247	584.62732	1027.77368	364.38510	588.79938	1029.58386	89.24282	396.29968	1059.18909	283.30826	391.49844	1050.26099	178.35573	512.40350	849.51129	42.98503	546.79675	600.18250	112.93188	597.69885	715.96930	126.09370	486.47711	378.32184	91.98838	434.50851	184.98325	135.27135	497.62061	272.90472	165.31403	569.44928	840.82916	419.91028	660.78870	621.96991	407.71750	688.28552	789.27679	353.57211	650.25549	470.62567	418.84879	625.10382	217.72852	383.41934	532.51031	105.79009	327.28860	845.24414	70.25717	345.56107	747.87939	59.81068	292.20273	741.62408	51.90736	407.34467	691.06006	56.49144	397.27716	714.33789	120.91986	345.32291	792.22791	60.30689	296.81400	791.64319	56.35457	400.21881	334.26901	66.35414	196.65726	645.95465	58.00351	157.56746	550.19806	36.03328	218.75972	540.81915	31.68054	101.19041	486.24203	29.52438	114.78057	522.61237	96.20985	168.58893	592.05725	36.32582	211.14963	585.41620	41.13064	107.45657	393.89908	1054.72510	230.83200	691.73352	338.81827	342.76019 
51	0.417	641.65906	1454.88013	206.85052	479.81152	1554.31262	210.26559	528.03400	1544.03857	371.99216	507.11481	1542.51465	73.98802	675.24725	1294.97229	217.96344	399.48315	1336.45081	227.06549	592.80249	1026.38672	364.43616	595.85974	1028.77930	89.33602	404.23474	1058.52734	284.20532	398.98859	1049.83545	179.30659	518.31268	849.24585	43.37463	551.80981	599.39948	113.32051	603.04767	715.01495	126.11672	489.55545	378.33823	91.71944	435.32275	184.95291	135.52675	499.02240	272.51013	165.81258	576.30676	839.06329	419.00571	668.26746	620.49652	406.47888	695.35486	787.87982	352.24466	661.36310	467.96451	417.70331	648.26648	214.09750	383.15619	561.30658	97.57624	327.11966	874.90564	75.92795	345.64462	778.39142	61.12059	292.31897	772.03204	52.66613	407.11044	721.73370	55.53604	397.29758	741.79474	120.47725	345.40085	822.43951	63.62565	296.83929	821.96912	59.45676	400.23618	334.26904	66.42243	196.71777	645.97473	57.97972	157.53998	550.32092	36.09979	218.76059	540.84302	31.66210	101.14585	486.24017	29.60898	114.65976	522.70886	96.09122	168.65967	592.10339	36.35678	211.17049	585.39966	41.09225	107.47827	401.61166	1054.18140	231.75595	709.30450	338.02042	341.95792 
52	0.425	650.12067	1453.75134	207.61092	488.38321	1553.47021	211.10098	536.72754	1543.28113	372.62869	515.39014	1541.75696	74.92076	683.48328	1294.03027	218.52913	407.81427	1335.68433	228.11810	600.84064	1024.96277	364.56741	602.93677	1027.87280	89.46409	412.07510	1057.76282	285.06873	406.48322	1049.40527	180.23428	524.20758	849.04370	43.84846	556.55621	598.72601	113.44176	608.47388	714.04700	126.43762	492.16553	378.16855	92.00045	436.26828	184.87201	135.69597	500.66544	272.57657	166.09447	583.88812	837.63098	418.94571	675.08069	618.73389	405.17194	702.33936	786.20630	351.25110	672.17822	465.26669	416.53311	671.24664	210.95457	382.83911	591.70911	89.72592	325.76697	904.35840	82.41879	345.68729	808.62628	63.63433	292.34393	802.80566	54.60476	407.16852	752.08002	55.28852	397.17282	769.45050	121.18804	345.56833	852.46814	68.01143	296.84232	852.18500	63.51780	400.22626	334.30634	66.52506	196.79378	646.00690	57.98490	157.51476	550.91168	35.87838	218.49817	540.84357	31.71728	101.13226	486.21753	29.64258	114.65952	522.72974	96.12448	168.75209	592.23431	36.11165	211.14285	585.38885	41.18422	107.47585	409.27914	1053.58398	232.65150	726.68805	337.64148	341.61957 
53	0.433	658.64404	1452.64355	208.50034	496.98959	1552.57764	212.02284	545.39734	1542.39709	373.31851	523.79114	1540.81726	76.02274	691.92188	1293.02307	219.17648	416.05627	1334.87805	229.25600	609.16010	1023.54327	364.85629	610.26361	1026.99255	89.82063	420.17621	1056.89087	286.10800	414.15491	1048.74390	181.28181	530.08514	848.88409	44.36760	561.02240	598.16571	113.28947	614.17279	713.23370	126.76362	494.91364	377.65955	92.07442	437.50366	184.53998	136.29639	502.49939	272.11707	166.68408	591.52344	836.19135	419.22266	681.08606	616.72784	403.82980	709.33978	784.31445	350.66016	682.46252	462.45248	415.10068	693.96301	208.39503	382.48108	621.15375	83.21167	324.90186	933.10107	89.81036	346.29388	838.58850	66.94006	292.33948	832.70764	57.61268	407.25818	782.13177	55.83210	397.03036	796.64148	122.69099	345.37097	882.18512	73.21389	297.11945	881.46350	68.61000	400.49643	334.27991	66.65440	196.88721	646.08533	57.93491	157.49139	551.54742	35.70188	218.23051	540.78418	31.88781	100.95699	486.56244	29.54005	115.11209	522.83093	96.20006	168.92471	592.39233	35.85148	211.11313	585.38983	41.33979	107.47778	417.16556	1052.81738	233.69490	744.30322	337.95737	341.55164 
54	0.442	667.31238	1451.54712	209.43361	505.62039	1551.60645	213.07455	554.10156	1541.40063	374.05597	532.11084	1540.04004	77.06309	700.44684	1291.97546	220.10452	424.44196	1333.99658	230.45026	617.70325	1022.13947	365.13885	617.17151	1026.16614	89.78522	428.30994	1055.94592	287.58365	421.63876	1048.01379	182.44571	535.94934	848.74597	44.90102	565.20197	597.71924	112.86256	619.74731	712.20068	127.24494	497.21451	377.41940	93.05736	438.32159	184.61949	136.47055	504.00592	271.95731	166.63315	598.86444	834.66083	419.64545	686.45239	614.15564	402.28680	716.18195	782.28284	350.25723	692.18036	459.55200	413.56378	716.16907	206.42714	382.00113	649.70782	78.06913	324.72775	960.80206	98.08937	346.89981	867.62573	71.42973	292.59659	861.66180	60.57748	407.03439	811.41833	56.84527	396.66061	822.96289	124.60065	346.05499	910.78119	79.64642	297.46527	910.13049	73.96124	400.78891	334.31674	66.81631	197.13574	646.16791	57.92469	157.59502	550.78516	36.00571	218.74304	541.21942	32.02886	100.70273	486.66483	29.48126	115.42768	522.74921	96.23345	169.06052	592.34570	36.18238	211.22659	585.49408	41.30727	107.56255	424.97433	1051.97986	235.01468	760.75122	338.20074	341.19342 
55	0.450	676.17755	1450.28333	210.85513	514.26373	1550.59497	214.18739	562.81635	1540.25415	374.98404	540.56653	1539.10950	78.30953	708.99860	1290.84680	221.05159	432.72916	1332.91516	231.78943	626.22888	1020.27185	365.39093	624.46259	1025.38562	89.93491	436.54172	1054.74951	288.86057	429.37350	1047.07922	183.55470	541.81067	848.60876	45.42496	569.09656	597.38507	112.16550	625.58521	711.12872	127.56358	500.03015	377.28299	93.47749	439.22510	184.60292	136.84018	505.96838	271.69089	167.21330	606.08661	832.85193	419.94235	691.15656	611.28235	400.82816	722.84186	779.79224	350.08328	701.75330	456.67285	411.61938	737.68951	205.02177	381.30356	676.13953	73.78014	324.98514	987.52246	107.02409	347.71625	895.85010	76.68382	292.74387	889.70123	64.40285	406.78198	839.58539	58.95479	396.40585	848.62604	127.26143	346.51724	938.58655	86.80861	297.89038	937.78601	80.10304	401.15173	334.23242	67.00523	197.30209	646.28009	57.86888	157.67262	549.71075	36.57311	219.80876	541.08191	31.55198	101.42315	486.65082	29.62647	115.66122	522.90021	96.19506	169.23856	592.41931	36.82988	211.54544	585.56134	40.84175	107.83279	432.95761	1050.91431	236.20764	776.84351	338.82269	341.02164 
56	0.458	684.56445	1448.92358	211.62949	522.90961	1549.42358	215.36180	571.58771	1539.03699	376.02911	549.11664	1538.08459	79.63363	717.47406	1289.52271	222.00359	441.13074	1331.75134	233.12212	634.86517	1018.41431	365.69846	632.09949	1024.39917	90.20448	444.97458	1053.52832	289.97144	437.38516	1046.00525	184.61537	547.68512	848.45215	45.92233	572.71704	597.15869	111.20862	631.49738	710.14240	128.14900	502.97583	376.96249	94.24542	439.95392	184.88034	136.98361	508.03146	271.39224	167.83008	613.12885	830.68573	420.09378	695.72125	608.19684	399.27637	729.51501	777.08722	350.09808	710.83954	453.93594	409.87778	758.22272	204.18176	380.63345	702.33240	70.36452	324.50314	1012.81915	116.12408	348.87216	922.90723	82.42825	293.10083	916.36926	68.88691	406.49066	866.75000	61.85800	396.48273	873.20123	130.48793	346.94461	965.08588	94.28239	298.56830	963.94092	86.67605	401.76398	334.45670	67.22558	197.62943	646.40594	57.72642	157.73917	549.72595	36.56672	219.93332	541.14899	31.32062	101.64880	486.57104	29.77598	115.69095	523.08118	96.13546	169.52028	592.51843	36.81096	211.63333	585.70001	40.62121	107.91047	441.17987	1049.76672	237.29340	792.56573	339.83075	341.07501 
57	0.467	693.14935	1447.52844	212.73807	531.60028	1548.19165	216.64977	580.27118	1537.75952	377.08682	557.61499	1537.00891	80.95411	725.98303	1288.26440	222.87819	449.61835	1330.50757	234.37213	643.77856	1016.65710	366.21292	639.90521	1023.17139	90.62192	453.65262	1052.23218	291.30182	445.53152	1044.78979	185.72670	553.59363	848.25653	46.38212	576.08362	597.03271	110.00852	637.47479	708.86249	128.58194	506.08023	376.46011	94.44028	440.93814	184.95180	137.04880	509.91406	270.93427	168.29150	619.92163	828.51904	420.25488	700.15173	605.06281	397.69379	735.57593	773.26105	349.46930	719.71490	451.20526	407.93411	777.76678	203.82262	379.73276	728.40192	67.47902	322.53586	1036.43005	125.51308	350.02670	948.30902	88.61340	293.32697	941.23816	73.60336	406.26428	892.39819	64.89641	395.97525	896.35052	134.08394	347.29422	989.96484	102.17523	299.21002	988.48584	93.57172	402.32312	334.49503	67.37239	197.71272	646.70544	57.36694	157.84317	549.76697	36.61570	220.04709	541.17957	31.21760	101.56392	486.60901	29.81230	115.76128	523.09625	96.04905	169.61407	592.68903	36.71849	211.71126	585.98602	40.41960	107.97693	449.59207	1048.51099	238.51427	806.73383	339.12833	339.09326 
